<svg width="32" height="33" viewBox="0 0 32 33" fill="none" xmlns="http://www.w3.org/2000/svg">
<g clip-path="url(#clip0_7_7294)">
<path d="M16.8375 0.68125C16.575 0.5625 16.2938 0.5 16 0.5C15.7063 0.5 15.425 0.5625 15.1625 0.68125L3.39378 5.675C2.01878 6.25625 0.993778 7.6125 1.00003 9.25C1.03128 15.45 3.58128 26.7938 14.35 31.95C15.3938 32.45 16.6063 32.45 17.65 31.95C28.4188 26.7938 30.9688 15.45 31 9.25C31.0063 7.6125 29.9813 6.25625 28.6063 5.675L16.8375 0.68125ZM10.0563 18.3875C10.3563 18.4625 10.675 18.5 11 18.5C13.2063 18.5 15 16.7062 15 14.5V10.5H17.7625C18.5188 10.5 19.2125 10.925 19.55 11.6062L20 12.5H24C24.55 12.5 25 12.95 25 13.5V15.5C25 18.2625 22.7625 20.5 20 20.5H17V23.6688C17 24.125 16.6313 24.5 16.1688 24.5C16.0563 24.5 15.9438 24.475 15.8438 24.4312L9.67503 21.7875C9.26253 21.6125 9.00003 21.2063 9.00003 20.7625C9.00003 20.5875 9.03753 20.4188 9.11878 20.2625L10.0563 18.3875ZM10 10.5H13V14.5C13 15.6062 12.1063 16.5 11 16.5C9.89378 16.5 9.00003 15.6062 9.00003 14.5V11.5C9.00003 10.95 9.45003 10.5 10 10.5ZM18 13.5C18 13.2348 17.8947 12.9804 17.7071 12.7929C17.5196 12.6054 17.2652 12.5 17 12.5C16.7348 12.5 16.4805 12.6054 16.2929 12.7929C16.1054 12.9804 16 13.2348 16 13.5C16 13.7652 16.1054 14.0196 16.2929 14.2071C16.4805 14.3946 16.7348 14.5 17 14.5C17.2652 14.5 17.5196 14.3946 17.7071 14.2071C17.8947 14.0196 18 13.7652 18 13.5Z" fill="#06172C"/>
</g>
<defs>
<clipPath id="clip0_7_7294">
<rect width="32" height="32" fill="white" transform="translate(0 0.5)"/>
</clipPath>
</defs>
</svg>
